<?xml version="1.0" encoding="UTF-8" standalone="no"?>
<!-- Created with Inkscape (http://www.inkscape.org/) -->

<svg
   xmlns:dc="http://purl.org/dc/elements/1.1/"
   xmlns:cc="http://creativecommons.org/ns#"
   xmlns:rdf="http://www.w3.org/1999/02/22-rdf-syntax-ns#"
   xmlns:svg="http://www.w3.org/2000/svg"
   xmlns="http://www.w3.org/2000/svg"
   xmlns:sodipodi="http://sodipodi.sourceforge.net/DTD/sodipodi-0.dtd"
   xmlns:inkscape="http://www.inkscape.org/namespaces/inkscape"
   id="svg2"
   version="1.1"
   inkscape:version="0.48.4 r9939"
   width="1051.611"
   height="320.54907"
   xml:space="preserve"
   sodipodi:docname="scheduler_uml.pdf"><metadata
     id="metadata8"><rdf:RDF><cc:Work
         rdf:about=""><dc:format>image/svg+xml</dc:format><dc:type
           rdf:resource="http://purl.org/dc/dcmitype/StillImage" /><dc:title></dc:title></cc:Work></rdf:RDF></metadata><defs
     id="defs6" /><sodipodi:namedview
     pagecolor="#ffffff"
     bordercolor="#666666"
     borderopacity="1"
     objecttolerance="10"
     gridtolerance="10"
     guidetolerance="10"
     inkscape:pageopacity="0"
     inkscape:pageshadow="2"
     inkscape:window-width="1440"
     inkscape:window-height="876"
     id="namedview4"
     showgrid="false"
     fit-margin-top="0"
     fit-margin-left="0"
     fit-margin-right="0"
     fit-margin-bottom="0"
     inkscape:zoom="0.94793008"
     inkscape:cx="503.66392"
     inkscape:cy="67.127681"
     inkscape:window-x="0"
     inkscape:window-y="24"
     inkscape:window-maximized="1"
     inkscape:current-layer="g10" /><g
     id="g10"
     inkscape:groupmode="layer"
     inkscape:label="scheduler_uml"
     transform="matrix(1.25,0,0,-1.25,-16.781781,573.22209)"><path
       inkscape:connector-curvature="0"
       id="path16"
       style="fill:#fffacc;fill-opacity:1;fill-rule:nonzero;stroke:none"
       d="m 13.668435,458.57767 342.999995,0 0,-71 -342.999995,0 0,71 z" /><path
       inkscape:connector-curvature="0"
       id="path18"
       style="fill:none;stroke:#000000;stroke-width:1;stroke-linecap:butt;stroke-linejoin:round;stroke-miterlimit:10;stroke-opacity:1;stroke-dasharray:none"
       d="m 14.168435,458.07767 342.999995,0 0,-20 -342.999995,0 0,20 z" /><text
       id="text20"
       transform="scale(1,-1)"
       x="168.16841"
       y="-445.57767"><tspan
         id="tspan22"
         sodipodi:role="line"
         y="-445.57767"
         x="168.16841 176.41817 181.66805 186.91792 195.16774 197.41768 202.66756"
         style="font-size:9.99975586px;font-variant:normal;writing-mode:lr-tb;fill:#000000;fill-opacity:1;fill-rule:nonzero;stroke:none;font-family:Nimbus Sans L;-inkscape-font-specification:NimbusSanL-Regu">MaxMin </tspan></text>
<path
       inkscape:connector-curvature="0"
       id="path24"
       style="fill:none;stroke:#000000;stroke-width:1;stroke-linecap:butt;stroke-linejoin:round;stroke-miterlimit:10;stroke-opacity:1;stroke-dasharray:none"
       d="m 14.168435,438.07767 342.999995,0 0,-19 -342.999995,0 0,19 z" /><path
       inkscape:connector-curvature="0"
       id="path26"
       style="fill:none;stroke:#000000;stroke-width:1;stroke-linecap:butt;stroke-linejoin:round;stroke-miterlimit:10;stroke-opacity:1;stroke-dasharray:none"
       d="m 14.168435,419.07767 342.999995,0 0,-32 -342.999995,0 0,32 z" /><text
       id="text28"
       transform="scale(1,-1)"
       x="21.168373"
       y="-407.07767"><tspan
         id="tspan30"
         sodipodi:role="line"
         y="-407.07767"
         x="21.168373 27.168221 30.168129 38.417946 43.667824 48.917671 57.167488 59.417427 64.667305 67.667213 70.667183"
         style="font-size:9.99975586px;font-variant:normal;writing-mode:lr-tb;fill:#000000;fill-opacity:1;fill-rule:nonzero;stroke:none;font-family:Nimbus Sans L;-inkscape-font-specification:NimbusSanL-Regu">+ MaxMin() </tspan><tspan
         id="tspan32"
         sodipodi:role="line"
         y="-394.07767"
         x="21.168373 27.168221 30.168129 35.418007 40.667885 45.917763 51.167641 56.417488 61.667366 63.917305 69.177193 72.177132 79.676949 82.676888 85.676826 88.676765 98.426521 103.6764 106.67628 111.92616 114.92609 117.17603 122.42591 129.92574 132.92567 135.92561 138.92555 144.17537 149.42525 154.67513 159.925 162.92494 168.17482 173.4247 178.68452 180.93446 186.18434 189.18428 192.18422 195.18416 198.1841 203.43391 205.68391 210.93373 213.93367 219.93355 227.43336 232.68324 237.93312 243.183 248.43282 251.43275 256.68262 261.9325 267.93237 270.93225 273.93219 276.93213 279.93207 285.19196 287.44189 292.69177 295.69171 301.69153 308.44135 313.69122 318.9411 324.19098 329.44086 334.69073 336.94067 342.19055 348.19043"
         style="font-size:9.99975586px;font-variant:normal;writing-mode:lr-tb;fill:#000000;fill-opacity:1;fill-rule:nonzero;stroke:none;font-family:Nimbus Sans L;-inkscape-font-specification:NimbusSanL-Regu">+ schedule(w : Workflow, resourceList : List&lt;Resource&gt;) : List&lt;Schedule&gt; </tspan></text>
<path
       inkscape:connector-curvature="0"
       id="path34"
       style="fill:#fffacc;fill-opacity:1;fill-rule:nonzero;stroke:none"
       d="m 13.425425,377.55903 342.999995,0 0,-71 -342.999995,0 0,71 z" /><path
       inkscape:connector-curvature="0"
       id="path36"
       style="fill:none;stroke:#000000;stroke-width:1;stroke-linecap:butt;stroke-linejoin:round;stroke-miterlimit:10;stroke-opacity:1;stroke-dasharray:none"
       d="m 13.925425,377.05903 342.999995,0 0,-20 -342.999995,0 0,20 z" /><text
       id="text38"
       transform="scale(1,-1)"
       x="169.42537"
       y="-364.55902"><tspan
         id="tspan40"
         sodipodi:role="line"
         y="-364.55902"
         x="169.42537 177.67519 179.92513 185.175 193.42476 195.6747 200.92458"
         style="font-size:9.99975586px;font-variant:normal;writing-mode:lr-tb;fill:#000000;fill-opacity:1;fill-rule:nonzero;stroke:none;font-family:Nimbus Sans L;-inkscape-font-specification:NimbusSanL-Regu">MinMin </tspan></text>
<path
       inkscape:connector-curvature="0"
       id="path42"
       style="fill:none;stroke:#000000;stroke-width:1;stroke-linecap:butt;stroke-linejoin:round;stroke-miterlimit:10;stroke-opacity:1;stroke-dasharray:none"
       d="m 13.925425,357.05903 342.999995,0 0,-19 -342.999995,0 0,19 z" /><path
       inkscape:connector-curvature="0"
       id="path44"
       style="fill:none;stroke:#000000;stroke-width:1;stroke-linecap:butt;stroke-linejoin:round;stroke-miterlimit:10;stroke-opacity:1;stroke-dasharray:none"
       d="m 13.925425,338.05903 342.999995,0 0,-32 -342.999995,0 0,32 z" /><text
       id="text46"
       transform="scale(1,-1)"
       x="20.925362"
       y="-326.05902"><tspan
         id="tspan48"
         sodipodi:role="line"
         y="-326.05902"
         x="20.925362 26.925209 29.925148 38.174934 40.424873 45.674751 53.924538 56.174507 61.424355 64.424294 67.424232"
         style="font-size:9.99975586px;font-variant:normal;writing-mode:lr-tb;fill:#000000;fill-opacity:1;fill-rule:nonzero;stroke:none;font-family:Nimbus Sans L;-inkscape-font-specification:NimbusSanL-Regu">+ MinMin() </tspan><tspan
         id="tspan50"
         sodipodi:role="line"
         y="-313.05902"
         x="20.925362 26.925209 29.925148 35.174995 40.424873 45.674751 50.924629 56.174507 61.424355 63.674324 68.934212 71.93409 79.433907 82.433846 85.433784 88.433723 98.183479 103.43336 106.4333 111.68311 114.68305 116.93299 122.18287 129.68269 132.68263 135.68257 138.68251 143.93239 149.18221 154.43208 159.68196 162.6819 167.93178 173.18166 178.44154 180.69148 185.94136 188.94124 191.94118 194.94112 197.94106 203.19093 205.44087 210.69075 213.69063 219.69051 227.19032 232.4402 237.69008 242.93996 248.18983 251.18977 256.43958 261.68945 267.68933 270.68927 273.68921 276.68909 279.68903 284.94891 287.19885 292.44873 295.44867 301.44849 308.1983 313.44818 318.69806 323.94794 329.19781 334.44769 336.69763 341.94751 347.94739"
         style="font-size:9.99975586px;font-variant:normal;writing-mode:lr-tb;fill:#000000;fill-opacity:1;fill-rule:nonzero;stroke:none;font-family:Nimbus Sans L;-inkscape-font-specification:NimbusSanL-Regu">+ schedule(w : Workflow, resourceList : List&lt;Resource&gt;) : List&lt;Schedule&gt; </tspan></text>
<path
       inkscape:connector-curvature="0"
       id="path52"
       style="fill:#fffacc;fill-opacity:1;fill-rule:nonzero;stroke:none"
       d="m 14.026355,296.54039 342.999975,0 0,-71 -342.999975,0 0,71 z" /><path
       inkscape:connector-curvature="0"
       id="path54"
       style="fill:none;stroke:#000000;stroke-width:1;stroke-linecap:butt;stroke-linejoin:round;stroke-miterlimit:10;stroke-opacity:1;stroke-dasharray:none"
       d="m 14.526355,296.04039 342.999975,0 0,-20 -342.999975,0 0,20 z" /><text
       id="text56"
       transform="scale(1,-1)"
       x="170.02632"
       y="-283.54041"><tspan
         id="tspan58"
         sodipodi:role="line"
         y="-283.54041"
         x="170.02632 178.27614 183.52596 188.77589 194.02565 196.27565 201.52559"
         style="font-size:9.99975586px;font-variant:normal;writing-mode:lr-tb;fill:#000000;fill-opacity:1;fill-rule:nonzero;stroke:none;font-family:Nimbus Sans L;-inkscape-font-specification:NimbusSanL-Regu">Myopic </tspan></text>
<path
       inkscape:connector-curvature="0"
       id="path60"
       style="fill:none;stroke:#000000;stroke-width:1;stroke-linecap:butt;stroke-linejoin:round;stroke-miterlimit:10;stroke-opacity:1;stroke-dasharray:none"
       d="m 14.526355,276.04039 342.999975,0 0,-19 -342.999975,0 0,19 z" /><path
       inkscape:connector-curvature="0"
       id="path62"
       style="fill:none;stroke:#000000;stroke-width:1;stroke-linecap:butt;stroke-linejoin:round;stroke-miterlimit:10;stroke-opacity:1;stroke-dasharray:none"
       d="m 14.526355,257.04039 342.999975,0 0,-32 -342.999975,0 0,32 z" /><text
       id="text64"
       transform="scale(1,-1)"
       x="21.526283"
       y="-245.04039"><tspan
         id="tspan66"
         sodipodi:role="line"
         y="-245.04039"
         x="21.526283 27.5261 30.526039 38.775856 44.025734 49.275612 54.52549 56.775429 62.025307 65.025246 68.025154"
         style="font-size:9.99975586px;font-variant:normal;writing-mode:lr-tb;fill:#000000;fill-opacity:1;fill-rule:nonzero;stroke:none;font-family:Nimbus Sans L;-inkscape-font-specification:NimbusSanL-Regu">+ Myopic() </tspan><tspan
         id="tspan68"
         sodipodi:role="line"
         y="-232.04039"
         x="21.526283 27.5261 30.526039 35.775917 41.025795 46.275673 51.525551 56.775429 62.025307 64.275246 69.535164 72.535042 80.034859 83.034798 86.034737 89.034676 98.784431 104.03431 107.03425 112.28407 115.284 117.53394 122.78382 130.28365 133.28358 136.28352 139.28346 144.53334 149.78316 155.03304 160.28291 163.28285 168.53273 173.78261 179.0425 181.29243 186.54225 189.54219 192.54219 195.54207 198.54195 203.79189 206.04176 211.29164 214.29164 220.29152 227.79128 233.04115 238.29103 243.54091 248.79079 251.79066 257.04053 262.29041 268.29028 271.29016 274.29016 277.29004 280.28992 285.5498 287.7998 293.04968 296.04956 302.04944 308.79932 314.04919 319.29907 324.54895 329.79883 335.04858 337.29858 342.54846 348.54834"
         style="font-size:9.99975586px;font-variant:normal;writing-mode:lr-tb;fill:#000000;fill-opacity:1;fill-rule:nonzero;stroke:none;font-family:Nimbus Sans L;-inkscape-font-specification:NimbusSanL-Regu">+ schedule(w : Workflow, resourceList : List&lt;Resource&gt;) : List&lt;Schedule&gt; </tspan></text>
<path
       inkscape:connector-curvature="0"
       id="path70"
       style="fill:#fffacc;fill-opacity:1;fill-rule:nonzero;stroke:none"
       d="m 392.71422,458.57766 460.99998,0 0,-71 -460.99998,0 0,71 z" /><path
       inkscape:connector-curvature="0"
       id="path72"
       style="fill:none;stroke:#000000;stroke-width:1;stroke-linecap:butt;stroke-linejoin:round;stroke-miterlimit:10;stroke-opacity:1;stroke-dasharray:none"
       d="m 393.21422,458.07766 460.99998,0 0,-20 -460.99998,0 0,20 z" /><text
       id="text74"
       transform="scale(1,-1)"
       x="612.21411"
       y="-445.57767"><tspan
         id="tspan76"
         sodipodi:role="line"
         y="-445.57767"
         x="612.21411 618.96399 627.21375 629.46375 634.71362"
         style="font-size:9.99975586px;font-variant:normal;writing-mode:lr-tb;fill:#000000;fill-opacity:1;fill-rule:nonzero;stroke:none;font-family:Nimbus Sans L;-inkscape-font-specification:NimbusSanL-Regu">XMin </tspan></text>
<path
       inkscape:connector-curvature="0"
       id="path78"
       style="fill:none;stroke:#000000;stroke-width:1;stroke-linecap:butt;stroke-linejoin:round;stroke-miterlimit:10;stroke-opacity:1;stroke-dasharray:none"
       d="m 393.21422,438.07766 460.99998,0 0,-19 -460.99998,0 0,19 z" /><path
       inkscape:connector-curvature="0"
       id="path80"
       style="fill:none;stroke:#000000;stroke-width:1;stroke-linecap:butt;stroke-linejoin:round;stroke-miterlimit:10;stroke-opacity:1;stroke-dasharray:none"
       d="m 393.21422,419.07766 460.99998,0 0,-32 -460.99998,0 0,32 z" /><text
       id="text82"
       transform="scale(1,-1)"
       x="400.21411"
       y="-407.07767"><tspan
         id="tspan84"
         sodipodi:role="line"
         y="-407.07767"
         x="400.21411 406.21399 409.21387 415.96375 424.2135 426.4635 431.71338 434.71326 437.71326"
         style="font-size:9.99975586px;font-variant:normal;writing-mode:lr-tb;fill:#000000;fill-opacity:1;fill-rule:nonzero;stroke:none;font-family:Nimbus Sans L;-inkscape-font-specification:NimbusSanL-Regu">+ XMin() </tspan><tspan
         id="tspan86"
         sodipodi:role="line"
         y="-394.07767"
         x="400.21411 406.21399 409.21387 414.46375 419.71362 424.9635 430.21338 435.46326 440.71313 442.96301 448.2229 451.2229 458.72266 461.72266 464.72253 467.72241 477.47229 482.72205 485.72205 490.97192 493.9718 496.2218 501.47168 508.97144 511.97144 514.97131 517.97119 523.22107 528.47095 533.72083 538.9707 541.9707 547.22058 552.47046 557.73022 559.98022 565.2301 568.22998 571.22998 574.22992 577.22992 582.47961 584.72961 589.97949 592.97937 598.97925 606.47913 611.729 616.97888 622.22876 627.47852 630.47852 635.72839 640.97827 646.97815 649.97803 652.97791 658.22778 660.48779 665.73767 670.98755 673.98743 676.23743 679.2373 684.48718 692.73694 695.73694 698.73682 701.73682 708.48657 716.73645 718.98633 724.23621 730.98608 733.23596 738.48584 743.73572 746.73572 748.9856 751.9856 757.23547 765.49524 768.49512 771.49512 774.495 777.49487 782.74475 784.99475 790.24463 793.24451 799.24438 805.99426 811.24414 816.49402 821.7439 826.99365 832.24353 834.49353 839.74341 845.74329"
         style="font-size:9.99975586px;font-variant:normal;writing-mode:lr-tb;fill:#000000;fill-opacity:1;fill-rule:nonzero;stroke:none;font-family:Nimbus Sans L;-inkscape-font-specification:NimbusSanL-Regu">+ schedule(w : Workflow, resourceList : List&lt;Resource&gt;, algorithm : XMinAlgorithm) : List&lt;Schedule&gt; </tspan></text>
<path
       inkscape:connector-curvature="0"
       id="path88"
       style="fill:#fffacc;fill-opacity:1;fill-rule:nonzero;stroke:none"
       d="m 392.96383,378.13842 340.00007,0 0,-175.00001 -340.00007,0 0,175.00001 z" /><path
       inkscape:connector-curvature="0"
       id="path90"
       style="fill:none;stroke:#000000;stroke-width:1;stroke-linecap:butt;stroke-linejoin:round;stroke-miterlimit:10;stroke-opacity:1;stroke-dasharray:none"
       d="m 392.96383,377.63842 340.00007,0 0,-20 -340.00007,0 0,20 z" /><text
       id="text92"
       transform="scale(1,-1)"
       x="552.46375"
       y="-365.13843"><tspan
         id="tspan94"
         sodipodi:role="line"
         y="-365.13843"
         x="552.46375 559.96368 562.9635 565.21338 567.46338 572.71332"
         style="font-size:9.99975586px;font-variant:normal;writing-mode:lr-tb;fill:#000000;fill-opacity:1;fill-rule:nonzero;stroke:none;font-family:Nimbus Sans L;-inkscape-font-specification:NimbusSanL-Regu">Utils </tspan></text>
<path
       inkscape:connector-curvature="0"
       id="path96"
       style="fill:none;stroke:#000000;stroke-width:1;stroke-linecap:butt;stroke-linejoin:round;stroke-miterlimit:10;stroke-opacity:1;stroke-dasharray:none"
       d="m 392.96383,357.63842 340.00007,0 0,-19 -340.00007,0 0,19 z" /><path
       inkscape:connector-curvature="0"
       id="path98"
       style="fill:none;stroke:#000000;stroke-width:1;stroke-linecap:butt;stroke-linejoin:round;stroke-miterlimit:10;stroke-opacity:1;stroke-dasharray:none"
       d="m 392.96383,338.63842 340.00007,0 0,-136.00001 -340.00007,0 0,136.00001 z" /><text
       id="text100"
       transform="scale(1,-1)"
       x="399.96375"
       y="-326.6384"><tspan
         id="tspan102"
         sodipodi:role="line"
         y="-326.6384"
         x="399.96375 405.96362 408.9635 416.46338 419.46326 421.71326 423.96313 429.21301 432.21301 435.21289"
         style="font-size:9.99975586px;font-variant:normal;writing-mode:lr-tb;fill:#000000;fill-opacity:1;fill-rule:nonzero;stroke:none;font-family:Nimbus Sans L;-inkscape-font-specification:NimbusSanL-Regu">+ Utils() </tspan><tspan
         id="tspan104"
         sodipodi:role="line"
         y="-313.6384"
         x="399.96375 405.96362 408.9635 414.21338 419.46326 427.71301 432.96289 438.21277 441.21277 446.46265 454.72241 459.97229 465.22217 470.47205 475.72192 480.9718 486.22168 491.47156 494.47144 499.72131 504.97119 510.22107 515.47095 520.72083 525.9707 528.22058 533.47046 536.47046 539.47034 542.47021 547.72009 549.9801 555.22998 558.22992 564.2298 570.97961 576.22949 581.47925 586.72913 591.979 597.22876 599.47876 604.72864 610.72852 613.72839 616.72839 619.72827 622.72815 627.97803 633.22791 638.47778 643.72766 645.97766 651.23755"
         style="font-size:9.99975586px;font-variant:normal;writing-mode:lr-tb;fill:#000000;fill-opacity:1;fill-rule:nonzero;stroke:none;font-family:Nimbus Sans L;-inkscape-font-specification:NimbusSanL-Regu">+ computeMakespan(schedule : List&lt;Schedule&gt;) : double </tspan><tspan
         id="tspan106"
         sodipodi:role="line"
         y="-300.6384"
         x="399.96375 405.96362 408.9635 414.21338 419.46326 424.71313 429.96301 436.71289 441.96277 447.21265 452.47241 457.72229 462.97217 465.22217 470.47205 473.47192 478.7218 483.97168 489.22156 494.47144 499.72131 502.72119 505.72119 508.72107 513.97095 516.22095 521.47083 524.4707 530.47058 537.22046 542.47021 547.72009 552.97998 558.22992 563.4798 565.7298 570.97961 576.97949 579.97931 582.97913 585.97913 588.979 595.72888 598.72876 601.72876 603.97864 609.22852 614.47839"
         style="font-size:9.99975586px;font-variant:normal;writing-mode:lr-tb;fill:#000000;fill-opacity:1;fill-rule:nonzero;stroke:none;font-family:Nimbus Sans L;-inkscape-font-specification:NimbusSanL-Regu">+ echoSchedule(sched : List&lt;Schedule&gt;) : String </tspan><tspan
         id="tspan108"
         sodipodi:role="line"
         y="-287.6384"
         x="399.96375 405.96362 408.9635 414.21338 417.21338 419.46326 424.71313 427.71301 434.46289 439.71277 444.96265 450.22253 455.47241 460.72229 462.97217 468.22205 471.22205 476.47192 481.7218 486.97168 492.22156 497.47131 500.47131 503.47119 506.47119 511.72107 513.97095 519.22083 522.22083 528.22058 534.97046 540.22034 545.47021 550.7301 555.97998 561.22992 563.4798 568.72961 574.72949 577.72931"
         style="font-size:9.99975586px;font-variant:normal;writing-mode:lr-tb;fill:#000000;fill-opacity:1;fill-rule:nonzero;stroke:none;font-family:Nimbus Sans L;-inkscape-font-specification:NimbusSanL-Regu">+ printSchedule(sched : List&lt;Schedule&gt;) </tspan><tspan
         id="tspan110"
         sodipodi:role="line"
         y="-274.6384"
         x="399.96375 405.96362 408.9635 414.21338 419.46326 424.71313 429.96301 435.21289 441.96277 447.21265 449.47253 451.72253 456.97241 463.72217 468.97205 474.22192 479.4718 484.72168 489.97156 492.22156 497.47131 500.47131 505.72119 510.97107 516.22095 521.47083 526.7207 531.97058 534.22046 539.47034 542.47021 545.47021 548.4801 553.72998 555.97998 561.22992 564.2298 570.22961 576.97949 582.22913 587.479 592.72888 597.97876 603.22864 605.47864 610.72852 616.72839 619.72827 622.72815 625.72815 628.72803 633.97791 639.22778 644.47766 646.73755 651.98743 657.2373 662.48718"
         style="font-size:9.99975586px;font-variant:normal;writing-mode:lr-tb;fill:#000000;fill-opacity:1;fill-rule:nonzero;stroke:none;font-family:Nimbus Sans L;-inkscape-font-specification:NimbusSanL-Regu">+ checkValidSchedule(schedule : List&lt;Schedule&gt;) : boolean </tspan><tspan
         id="tspan112"
         sodipodi:role="line"
         y="-261.6384"
         x="399.96375 405.96362 408.9635 414.21338 417.21338 422.46326 427.71301 430.71301 435.96289 443.46265 450.97253 456.22241 461.47229 464.47217 467.47205 474.22192 479.4718 482.47168 484.72168 489.97156 492.97144 495.97144 501.22131 506.47119 511.72107 516.97095 522.22083 527.47058 529.72058 534.97046 537.97034 540.97034 543.97021 549.22009 551.4801 556.72998 559.72992 565.7298 572.47949 577.72931 582.97913 588.229 593.47888 598.72876 600.97876 606.22864 612.22839 615.22839 618.22827 623.47815 625.72815 630.97803 633.97791 639.97778 642.22766 645.22766 647.47754 652.73743 655.73743 658.7373 661.7373 668.48706 671.48706 674.48694 676.73694 681.98682 687.23657 690.23657 693.23645 696.23645 699.23633 705.98621 708.98608 711.98608 714.23596 719.48584 724.73572"
         style="font-size:9.99975586px;font-variant:normal;writing-mode:lr-tb;fill:#000000;fill-opacity:1;fill-rule:nonzero;stroke:none;font-family:Nimbus Sans L;-inkscape-font-specification:NimbusSanL-Regu">+ createRGanttScript(schedule : List&lt;Schedule&gt;, plotTitle : String) : String </tspan><tspan
         id="tspan114"
         sodipodi:role="line"
         y="-248.6384"
         x="399.96375 405.96362 408.9635 416.46338 419.46326 421.71326 424.71313 429.96301 437.46289 442.71265 444.96265 450.22253 455.47241 458.47229 461.47229 466.72217 471.97205 474.22192 479.4718 484.72168 487.72156 493.72144 495.97144 498.22131 503.47119 506.47119 509.47107 512.47107 519.22083 522.22083 525.2207 527.47058 532.72046 537.97034 540.97034 543.97021 549.22009 552.22009 555.22998 558.22992 565.7298 570.97961 573.22949 578.47931 583.72913 586.72913 589.729"
         style="font-size:9.99975586px;font-variant:normal;writing-mode:lr-tb;fill:#000000;fill-opacity:1;fill-rule:nonzero;stroke:none;font-family:Nimbus Sans L;-inkscape-font-specification:NimbusSanL-Regu">+ writeObject(objectFile : String, o : Object) </tspan><tspan
         id="tspan116"
         sodipodi:role="line"
         y="-235.6384"
         x="399.96375 405.96362 408.9635 411.9635 417.21338 422.46326 427.71301 435.21289 440.46277 442.71265 447.97253 453.22241 456.22241 459.22229 464.47217 469.72205 471.97205 477.22192 482.47168 485.47168 491.47156 493.72144 495.97144 501.22131 504.22119 507.22119 510.22107 516.97095 519.97083 522.9707 525.2207 530.47058 535.72046 538.72034 541.72034 544.72021 547.72009 553.72998"
         style="font-size:9.99975586px;font-variant:normal;writing-mode:lr-tb;fill:#000000;fill-opacity:1;fill-rule:nonzero;stroke:none;font-family:Nimbus Sans L;-inkscape-font-specification:NimbusSanL-Regu">+ readObject(objectFile : String) : T </tspan><tspan
         id="tspan118"
         sodipodi:role="line"
         y="-222.6384"
         x="399.96375 405.96362 408.9635 416.46338 419.46326 421.71326 424.71313 429.96301 435.96289 438.21277 440.46277 445.71265 448.71252 451.72253 453.97241 456.22241 461.47229 466.72217 471.97205 480.2218 485.47168 488.47156 491.47156 494.47144 501.22131 504.22119 507.22119 509.47107 514.72095 519.97083 522.9707 525.9707 531.22058 536.47046 541.72034 544.72021 549.97009 555.22998 558.22992 561.22992 564.2298 567.22961 573.97949 576.97949 579.97931 582.22913 587.479 592.72888 595.72888"
         style="font-size:9.99975586px;font-variant:normal;writing-mode:lr-tb;fill:#000000;fill-opacity:1;fill-rule:nonzero;stroke:none;font-family:Nimbus Sans L;-inkscape-font-specification:NimbusSanL-Regu">+ writeFile(filename : String, content : String) </tspan><tspan
         id="tspan120"
         sodipodi:role="line"
         y="-209.63838"
         x="399.96375 405.96362 408.9635 416.46338 419.46326 421.71326 424.71313 429.96301 437.46289 442.71265 447.96252 453.22241 458.47229 461.47229 466.72217 471.97205 477.22192 479.4718 484.72168 487.72156 490.72156 493.72144 495.97144 498.22131 503.47119 508.72107 513.97095 522.22083 527.47058 530.47058 533.47046 536.47046 543.22021 546.22021 549.22009 551.47009 556.72998 561.97992 564.9798 567.97961 570.97961 576.22949 581.47925 586.72913 591.979 594.97888 600.22876 605.47864 610.72852 612.97839 618.22827 621.22827 624.22815 627.22803 630.22803 635.47791 637.72778 642.97766 645.97766 651.97754 659.4873 664.73718 669.98706 675.23694 680.48682 683.48669 688.73657 693.98645 699.98633 702.98621"
         style="font-size:9.99975586px;font-variant:normal;writing-mode:lr-tb;fill:#000000;fill-opacity:1;fill-rule:nonzero;stroke:none;font-family:Nimbus Sans L;-inkscape-font-specification:NimbusSanL-Regu">+ writeResourceList(filename : String, resourceList : List&lt;Resource&gt;) </tspan></text>
<path
       inkscape:connector-curvature="0"
       id="path122"
       style="fill:#fffacc;fill-opacity:1;fill-rule:nonzero;stroke:none"
       d="m 768.8509,326.67083 79,0 0,-84 -79,0 0,84 z" /><path
       inkscape:connector-curvature="0"
       id="path124"
       style="fill:none;stroke:#000000;stroke-width:1;stroke-linecap:butt;stroke-linejoin:round;stroke-miterlimit:10;stroke-opacity:1;stroke-dasharray:none"
       d="m 769.3509,326.67083 79,0 0,-33 -79,0 0,33 z" /><text
       id="text126"
       transform="scale(1,-1)"
       x="776.85083"
       y="-314.17084"><tspan
         id="tspan128"
         sodipodi:role="line"
         y="-314.17084"
         x="776.85083 782.10059 787.35034 792.60034 797.8501 806.1001 811.34985 814.34985 819.59961 822.60962 824.85962 830.10938 835.35938 840.60913"
         style="font-size:9.99975586px;font-variant:normal;writing-mode:lr-tb;fill:#000000;fill-opacity:1;fill-rule:nonzero;stroke:none;font-family:Nimbus Sans L;-inkscape-font-specification:NimbusSanL-Regu">«enumeration» </tspan><tspan
         id="tspan130"
         sodipodi:role="line"
         y="-300.67084"
         x="776.85083 783.60059 791.85034 794.10034 799.3501 806.1001 808.34985 813.59985 818.84961 821.84961 824.10962 827.10938 832.35938 840.60913"
         style="font-size:9.99975586px;font-variant:normal;writing-mode:lr-tb;fill:#000000;fill-opacity:1;fill-rule:nonzero;stroke:none;font-family:Nimbus Sans L;-inkscape-font-specification:NimbusSanL-Regu">XMinAlgorithm </tspan></text>
<path
       inkscape:connector-curvature="0"
       id="path132"
       style="fill:none;stroke:#000000;stroke-width:1;stroke-linecap:butt;stroke-linejoin:round;stroke-miterlimit:10;stroke-opacity:1;stroke-dasharray:none"
       d="m 769.3509,293.67083 79,0 0,-19 -79,0 0,19 z" /><path
       inkscape:connector-curvature="0"
       id="path134"
       style="fill:none;stroke:#000000;stroke-width:1;stroke-linecap:butt;stroke-linejoin:round;stroke-miterlimit:10;stroke-opacity:1;stroke-dasharray:none"
       d="m 769.3509,274.67083 79,0 0,-32 -79,0 0,32 z" /><text
       id="text136"
       transform="scale(1,-1)"
       x="776.35083"
       y="-262.67084"><tspan
         id="tspan138"
         sodipodi:role="line"
         y="-262.67084"
         x="776.35083 784.60059 786.85034 792.10034 800.3501 802.6001 807.84985"
         style="font-size:9.99975586px;font-variant:normal;writing-mode:lr-tb;fill:#000000;fill-opacity:1;fill-rule:nonzero;stroke:none;font-family:Nimbus Sans L;-inkscape-font-specification:NimbusSanL-Regu">MinMin </tspan><tspan
         id="tspan140"
         sodipodi:role="line"
         y="-249.67082"
         x="776.35083 784.60059 789.85034 795.10034 803.3501 805.6001 810.84985"
         style="font-size:9.99975586px;font-variant:normal;writing-mode:lr-tb;fill:#000000;fill-opacity:1;fill-rule:nonzero;stroke:none;font-family:Nimbus Sans L;-inkscape-font-specification:NimbusSanL-Regu">MaxMin </tspan></text>
</g></svg>